<svg xmlns="http://www.w3.org/2000/svg" width="440" height="130" viewBox="0 0 440 130" fill="none">
  <rect x="0.5" y="0.5" width="439" height="129" rx="6" fill="#0d1117" stroke="#30363d"/>
  
  <!-- Header Icon & Title -->
  <path fill-rule="evenodd" clip-rule="evenodd" d="M4 1.75C4 .784 4.784 0 5.75 0h8.5c.966 0 1.75.784 1.75 1.75v12.5a.75.75 0 0 1-1.28.53L10 10.31l-4.72 4.47A.75.75 0 0 1 4 14.25V1.75zM5.5 1.5v10.39l3.97-3.76a.75.75 0 0 1 1.06 0l3.97 3.76V1.5h-9z" fill="#8b949e" transform="translate(16, 18)"/>
  <text x="38" y="30" fill="#58a6ff" font-family="-apple-system,BlinkMacSystemFont,Segoe UI,Helvetica,Arial,sans-serif" font-size="14" font-weight="600">CTM</text>
  
  <rect x="78" y="16" width="42" height="18" rx="9" fill="none" stroke="#30363d"/>
  <text x="86" y="29" fill="#8b949e" font-family="-apple-system,BlinkMacSystemFont,Segoe UI,Helvetica,Arial,sans-serif" font-size="12" font-weight="500">Public</text>

  <!-- Description -->
  <text x="16" y="55" fill="#8b949e" font-family="-apple-system,BlinkMacSystemFont,Segoe UI,Helvetica,Arial,sans-serif" font-size="12">CTM( Custom Theme Maker ) is a VSCode extension that</text>
  <text x="16" y="72" fill="#8b949e" font-family="-apple-system,BlinkMacSystemFont,Segoe UI,Helvetica,Arial,sans-serif" font-size="12">let's you customize your editor's aesthetic and coding...</text>

  <!-- Footer Stats -->
  <circle cx="22" cy="104" r="6" fill="#3178c6"/>
  <text x="34" y="108" fill="#8b949e" font-family="-apple-system,BlinkMacSystemFont,Segoe UI,Helvetica,Arial,sans-serif" font-size="12">TypeScript</text>

  <path d="M8 0L10.472 5.008 16 5.816 12 9.712 12.944 15.216 8 12.616 3.056 15.216 4 9.712 0 5.816 5.528 5.008z" fill="#8b949e" transform="translate(110, 96) scale(0.7)"/>
  <text x="126" y="108" fill="#8b949e" font-family="-apple-system,BlinkMacSystemFont,Segoe UI,Helvetica,Arial,sans-serif" font-size="12">4</text>
</svg>
